<?xml version="1.0" encoding="utf-8"?>
<!-- Generator: Adobe Illustrator 15.0.0, SVG Export Plug-In . SVG Version: 6.00 Build 0)  -->
<!DOCTYPE svg PUBLIC "-//W3C//DTD SVG 1.1//EN" "http://www.w3.org/Graphics/SVG/1.1/DTD/svg11.dtd">
<svg version="1.1" xmlns="http://www.w3.org/2000/svg" xmlns:xlink="http://www.w3.org/1999/xlink" x="0px" y="0px" width="440px"
	 height="440px" viewBox="0 0 440 440" enable-background="new 0 0 440 440" xml:space="preserve">
<g id="Shape_1_1_" enable-background="new    ">
	<g id="Shape_1">
		<g>
			<polygon fill-rule="evenodd" clip-rule="evenodd" fill="#32AF73" points="400,40 400,0 320,0 320,40 280,40 280,80 160,80 
				160,40 120,40 120,0 40,0 40,40 0,40 0,360 40,360 40,400 80,400 80,440 360,440 360,400 400,400 400,360 440,360 440,40 			"/>
		</g>
	</g>
</g>
<g id="Shape_2_1_" enable-background="new    ">
	<g id="Shape_2">
		<g>
			<polygon fill-rule="evenodd" clip-rule="evenodd" fill="#FFFFFF" points="360,198.333 360,160 80,160 80,197.667 40,197.667 
				40,319.333 80,319.333 80,360 120,360 120,400 320,400 320,360 360,360 360,318.667 400,318.667 400,198.333 			"/>
		</g>
	</g>
</g>
<g id="Shape_5_1_" enable-background="new    ">
	<g id="Shape_5">
		<g>
			<path fill-rule="evenodd" clip-rule="evenodd" d="M240,320h-40v-40h-40v80h120v-80h-40V320z M80,280h40v-40H80V280z M320,240v40
				h40v-40H320z"/>
		</g>
	</g>
</g>
</svg>
